<?xml version="1.0" standalone="no"?>
<!DOCTYPE svg PUBLIC "-//W3C//DTD SVG 20010904//EN"
 "http://www.w3.org/TR/2001/REC-SVG-20010904/DTD/svg10.dtd">
<svg version="1.0" xmlns="http://www.w3.org/2000/svg"
 width="200.000000pt" height="36.000000pt" viewBox="0 0 200.000000 36.000000"
 preserveAspectRatio="xMidYMid meet">

<g transform="translate(0.000000,36.000000) scale(0.100000,-0.100000)"
fill="#000000" stroke="none">
<path d="M70 185 l0 -95 40 0 39 0 3 62 c3 60 4 63 30 66 18 2 31 -4 42 -20
32 -45 10 -128 -35 -128 -14 0 -19 -7 -19 -30 0 -34 11 -37 73 -19 49 13 77
57 77 122 0 100 -47 137 -175 137 l-75 0 0 -95z"/>
<path d="M1430 145 l0 -135 40 0 40 0 0 44 0 43 48 7 c78 10 118 64 90 122
-19 41 -53 54 -140 54 l-78 0 0 -135z m145 45 c0 -21 -5 -26 -32 -28 -31 -3
-33 -1 -33 28 0 29 2 31 33 28 27 -2 32 -7 32 -28z"/>
<path d="M1747 273 c-8 -12 -97 -249 -97 -257 0 -3 18 -6 39 -6 33 0 40 4 45
25 6 22 11 25 56 25 45 0 50 -3 56 -25 5 -22 12 -25 50 -25 l44 0 -19 48 c-10
26 -33 86 -51 135 l-33 87 -43 0 c-24 0 -45 -3 -47 -7z m72 -150 c1 -8 -11
-13 -30 -13 -33 0 -33 3 -7 70 l10 25 13 -35 c8 -19 14 -41 14 -47z"/>
<path d="M364 201 c-2 -2 -4 -46 -4 -98 l0 -93 30 0 30 0 0 98 0 97 -26 0
c-14 0 -28 -2 -30 -4z"/>
<path d="M503 191 c-54 -33 -56 -121 -5 -162 22 -17 37 -20 79 -17 66 6 83 20
83 69 l0 39 -45 0 c-33 0 -45 -4 -45 -15 0 -8 9 -15 20 -15 11 0 20 -7 20 -15
0 -16 -42 -30 -65 -22 -18 8 -29 49 -21 81 7 28 42 44 59 27 13 -13 64 -15 72
-2 3 5 -7 19 -21 30 -34 26 -89 27 -131 2z"/>
<path d="M800 183 c0 -19 6 -23 30 -23 l30 0 0 -75 0 -75 30 0 30 0 0 75 0 75
30 0 c24 0 30 4 30 23 0 21 -3 22 -90 22 -87 0 -90 -1 -90 -22z"/>
<path d="M1048 180 c-36 -91 -58 -152 -58 -160 0 -19 49 -10 60 10 15 27 65
27 80 0 12 -22 60 -28 60 -7 -1 6 -16 50 -34 96 -31 81 -34 84 -65 85 -27 1
-35 -4 -43 -24z m57 -67 c5 -19 3 -23 -15 -23 -16 0 -20 4 -16 16 3 9 6 23 6
32 0 21 15 5 25 -25z"/>
<path d="M1240 108 l0 -98 75 0 c73 0 75 1 75 25 0 23 -3 25 -50 25 l-50 0 0
73 c0 70 -1 72 -25 72 -25 0 -25 0 -25 -97z"/>
<path d="M700 105 l0 -95 30 0 30 0 0 95 0 95 -30 0 -30 0 0 -95z"/>
<path d="M72 43 c3 -24 8 -28 41 -31 35 -3 37 -2 37 27 0 30 -2 31 -41 31 -38
0 -40 -1 -37 -27z"/>
</g>
</svg>
